<?xml version="1.0" encoding="utf-8"?>
<!-- Generator: Adobe Illustrator 21.0.0, SVG Export Plug-In . SVG Version: 6.00 Build 0)  -->
<svg version="1.1" id="Capa_1" xmlns="http://www.w3.org/2000/svg" xmlns:xlink="http://www.w3.org/1999/xlink" x="0px" y="0px"
	 viewBox="0 0 200 200" style="enable-background:new 0 0 200 200;" xml:space="preserve">
<style type="text/css">
	.st0{fill-rule:evenodd;clip-rule:evenodd;fill:#FFFFFF;}
</style>
<path class="st0" d="M125.44,86.46l-49.42,28.46c-2.39-4.17-3.76-9-3.76-14.15c0-15.75,12.77-28.52,28.52-28.52
	C111.3,72.25,120.5,77.97,125.44,86.46z M43.5,100.77c0-31.63,25.64-57.27,57.27-57.27c21.19,0,39.68,11.51,49.59,28.61l34.52-19.88
	c-1.38-2.43-3.46-4.47-6.24-6.08c-22.96-13.24-45.94-26.44-68.89-39.69c-6.19-3.57-12.19-3.44-18.33,0.18
	c-9.14,5.39-54.89,31.6-68.52,39.5c-5.61,3.25-8.35,8.22-8.35,14.69c-0.01,26.62,0,53.25-0.01,79.87c0,3.19,0.67,6.01,2.02,8.45
	l34.53-19.88C46.26,120.88,43.5,111.15,43.5,100.77z M76.01,114.92c4.92,8.58,14.16,14.37,24.76,14.37
	c10.67,0,19.96-5.86,24.85-14.53l-24.59-14.24L76.01,114.92z M100.77,158.04c-21.25,0-39.8-11.58-49.69-28.77l-34.53,19.88
	c1.39,2.5,3.49,4.6,6.33,6.24c13.63,7.9,59.39,34.11,68.53,39.5c6.14,3.63,12.14,3.75,18.33,0.18
	c22.95-13.25,45.93-26.45,68.9-39.69c2.85-1.65,4.95-3.74,6.33-6.24l-34.47-19.97C140.64,146.42,122.06,158.04,100.77,158.04z
	 M187,140.7c0,3.19-0.67,6.01-2.02,8.45l-83.95-48.63l83.85-48.28c1.41,2.47,2.11,5.35,2.11,8.61C187,87.47,187,140.7,187,140.7z
	 M158.44,97.43h-6.56v-6.56h-6.56v6.56h-6.56v6.56h6.56v6.56h6.56v-6.56h6.56V97.43z M182.38,97.43h-6.56v-6.56h-6.56v6.56h-6.56
	v6.56h6.56v6.56h6.56v-6.56h6.56V97.43z"/>
</svg>
